# Blender v2.62 (sub 0) OBJ File: 'Wall.blend'
# www.blender.org
mtllib WallSegment.mtl
o Cube_Cube.001
v 3.091622 -1.000000 -0.475827
v 3.091622 -1.000000 0.475827
v -3.091622 -1.000000 0.475827
v -3.091620 -1.000000 -0.475827
v 3.091623 1.000000 -0.475826
v 3.091620 1.000000 0.475827
v -3.091623 1.000000 0.475826
v -3.091621 1.000000 -0.475827
v 3.091623 1.000000 -0.968424
v -3.091621 1.000000 -0.968424
v -3.091623 1.000000 0.968424
v 3.091620 1.000000 0.968425
v 3.091623 1.705522 -0.968424
v 3.091620 1.705522 0.968425
v -3.091623 1.705522 0.968424
v -3.091621 1.705522 -0.968424
vt 1.000000 0.000000
vt 0.999999 0.205786
vt 0.000000 0.205786
vt 0.000000 0.000000
vt 1.000000 0.205786
vt 0.999999 0.000000
vt 0.999999 0.074266
vt 0.000000 0.074266
vt 1.000000 0.074266
vt 1.000000 0.283900
vt 0.000000 0.283900
vt 0.000000 0.380731
vt 1.000000 0.380731
vt -0.000000 0.096831
vt 0.999999 0.096831
vn -0.000000 -0.000000 1.000000
vn 0.000000 0.000000 -1.000000
vn 0.000000 -1.000000 0.000000
vn 0.000000 1.000000 0.000000
g Cube_Cube.001_Wall_Brick_tiled_TEX.png
usemtl Wall_Brick_tiled_TEX.png
s off
f 2/1/1 6/2/1 7/3/1
f 2/1/1 7/3/1 3/4/1
f 5/5/2 1/1/2 4/4/2
f 5/5/2 4/4/2 8/3/2
f 11/4/1 12/6/1 14/7/1
f 11/4/1 14/7/1 15/8/1
f 9/1/2 10/4/2 16/8/2
f 9/1/2 16/8/2 13/9/2
g Cube_Cube.001_Wall
usemtl Wall
f 5/10/3 8/11/3 10/12/3
f 5/10/3 10/12/3 9/13/3
f 7/14/3 6/15/3 12/6/3
f 7/14/3 12/6/3 11/4/3
f 13/13/4 16/12/4 15/4/4
f 13/13/4 15/4/4 14/6/4
